<?xml version="1.0" encoding="UTF-8" standalone="no"?>
<!-- Created with Inkscape (http://www.inkscape.org/) -->

<svg
   xmlns:dc="http://purl.org/dc/elements/1.1/"
   xmlns:cc="http://creativecommons.org/ns#"
   xmlns:rdf="http://www.w3.org/1999/02/22-rdf-syntax-ns#"
   xmlns:svg="http://www.w3.org/2000/svg"
   xmlns="http://www.w3.org/2000/svg"
   xmlns:sodipodi="http://sodipodi.sourceforge.net/DTD/sodipodi-0.dtd"
   xmlns:inkscape="http://www.inkscape.org/namespaces/inkscape"
   version="1.1"
   id="svg2"
   xml:space="preserve"
   width="500"
   height="224.00949"
   viewBox="0 0 500 224.00949"
   sodipodi:docname="BU.svg"
   inkscape:version="0.92.3 (2405546, 2018-03-11)"><metadata
     id="metadata8"><rdf:RDF><cc:Work
         rdf:about=""><dc:format>image/svg+xml</dc:format><dc:type
           rdf:resource="http://purl.org/dc/dcmitype/StillImage" /><dc:title></dc:title></cc:Work></rdf:RDF></metadata><defs
     id="defs6"><clipPath
       clipPathUnits="userSpaceOnUse"
       id="clipPath26"><path
         d="M 0,0 H 792 V 612 H 0 Z"
         id="path24"
         inkscape:connector-curvature="0" /></clipPath><clipPath
       clipPathUnits="userSpaceOnUse"
       id="clipPath56"><path
         d="M 0,0 H 792 V 612 H 0 Z"
         id="path54"
         inkscape:connector-curvature="0" /></clipPath><clipPath
       clipPathUnits="userSpaceOnUse"
       id="clipPath234"><path
         d="M 0,612 H 792 V 0 H 0 Z"
         id="path232"
         inkscape:connector-curvature="0" /></clipPath><clipPath
       clipPathUnits="userSpaceOnUse"
       id="clipPath246"><path
         d="M 0,0 H 792 V 612 H 0 Z"
         id="path244"
         inkscape:connector-curvature="0" /></clipPath><clipPath
       clipPathUnits="userSpaceOnUse"
       id="clipPath280"><path
         d="M 0,612 H 792 V 0 H 0 Z"
         id="path278"
         inkscape:connector-curvature="0" /></clipPath><clipPath
       clipPathUnits="userSpaceOnUse"
       id="clipPath292"><path
         d="M 0,0 H 792 V 612 H 0 Z"
         id="path290"
         inkscape:connector-curvature="0" /></clipPath><clipPath
       clipPathUnits="userSpaceOnUse"
       id="clipPath326"><path
         d="M 0,612 H 792 V 0 H 0 Z"
         id="path324"
         inkscape:connector-curvature="0" /></clipPath><clipPath
       clipPathUnits="userSpaceOnUse"
       id="clipPath364"><path
         d="M 0,612 H 792 V 0 H 0 Z"
         id="path362"
         inkscape:connector-curvature="0" /></clipPath><clipPath
       clipPathUnits="userSpaceOnUse"
       id="clipPath392"><path
         d="M 0,0 H 792 V 612 H 0 Z"
         id="path390"
         inkscape:connector-curvature="0" /></clipPath><clipPath
       clipPathUnits="userSpaceOnUse"
       id="clipPath402"><path
         d="M 0,612 H 792 V 0 H 0 Z"
         id="path400"
         inkscape:connector-curvature="0" /></clipPath><clipPath
       clipPathUnits="userSpaceOnUse"
       id="clipPath418"><path
         d="M 0,612 H 792 V 0 H 0 Z"
         id="path416"
         inkscape:connector-curvature="0" /></clipPath><clipPath
       clipPathUnits="userSpaceOnUse"
       id="clipPath440"><path
         d="M 0,612 H 792 V 0 H 0 Z"
         id="path438"
         inkscape:connector-curvature="0" /></clipPath><clipPath
       clipPathUnits="userSpaceOnUse"
       id="clipPath458"><path
         d="M 0,612 H 792 V 0 H 0 Z"
         id="path456"
         inkscape:connector-curvature="0" /></clipPath><clipPath
       clipPathUnits="userSpaceOnUse"
       id="clipPath482"><path
         d="M 0,612 H 792 V 0 H 0 Z"
         id="path480"
         inkscape:connector-curvature="0" /></clipPath><clipPath
       clipPathUnits="userSpaceOnUse"
       id="clipPath502"><path
         d="M 0,0 H 792 V 612 H 0 Z"
         id="path500"
         inkscape:connector-curvature="0" /></clipPath><clipPath
       clipPathUnits="userSpaceOnUse"
       id="clipPath512"><path
         d="M 0,612 H 792 V 0 H 0 Z"
         id="path510"
         inkscape:connector-curvature="0" /></clipPath><clipPath
       clipPathUnits="userSpaceOnUse"
       id="clipPath524"><path
         d="M 0,0 H 792 V 612 H 0 Z"
         id="path522"
         inkscape:connector-curvature="0" /></clipPath><clipPath
       clipPathUnits="userSpaceOnUse"
       id="clipPath536"><path
         d="M 0,612 H 792 V 0 H 0 Z"
         id="path534"
         inkscape:connector-curvature="0" /></clipPath><clipPath
       clipPathUnits="userSpaceOnUse"
       id="clipPath578"><path
         d="M 0,612 H 792 V 0 H 0 Z"
         id="path576"
         inkscape:connector-curvature="0" /></clipPath><clipPath
       clipPathUnits="userSpaceOnUse"
       id="clipPath590"><path
         d="M 0,612 H 792 V 0 H 0 Z"
         id="path588"
         inkscape:connector-curvature="0" /></clipPath><clipPath
       clipPathUnits="userSpaceOnUse"
       id="clipPath602"><path
         d="M 0,612 H 792 V 0 H 0 Z"
         id="path600"
         inkscape:connector-curvature="0" /></clipPath><clipPath
       clipPathUnits="userSpaceOnUse"
       id="clipPath616"><path
         d="M 0,612 H 792 V 0 H 0 Z"
         id="path614"
         inkscape:connector-curvature="0" /></clipPath><clipPath
       clipPathUnits="userSpaceOnUse"
       id="clipPath628"><path
         d="M 0,612 H 792 V 0 H 0 Z"
         id="path626"
         inkscape:connector-curvature="0" /></clipPath><clipPath
       clipPathUnits="userSpaceOnUse"
       id="clipPath640"><path
         d="M 0,612 H 792 V 0 H 0 Z"
         id="path638"
         inkscape:connector-curvature="0" /></clipPath><clipPath
       clipPathUnits="userSpaceOnUse"
       id="clipPath652"><path
         d="M 0,612 H 792 V 0 H 0 Z"
         id="path650"
         inkscape:connector-curvature="0" /></clipPath><clipPath
       clipPathUnits="userSpaceOnUse"
       id="clipPath664"><path
         d="M 0,612 H 792 V 0 H 0 Z"
         id="path662"
         inkscape:connector-curvature="0" /></clipPath><clipPath
       clipPathUnits="userSpaceOnUse"
       id="clipPath690"><path
         d="M 0,0 H 792 V 612 H 0 Z"
         id="path688"
         inkscape:connector-curvature="0" /></clipPath><clipPath
       clipPathUnits="userSpaceOnUse"
       id="clipPath782"><path
         d="M 0,0 H 792 V 612 H 0 Z"
         id="path780"
         inkscape:connector-curvature="0" /></clipPath><clipPath
       clipPathUnits="userSpaceOnUse"
       id="clipPath812"><path
         d="M 0,0 H 792 V 612 H 0 Z"
         id="path810"
         inkscape:connector-curvature="0" /></clipPath><clipPath
       clipPathUnits="userSpaceOnUse"
       id="clipPath838"><path
         d="M 0,115.349 H 792 V 612 H 0 Z"
         id="path836"
         inkscape:connector-curvature="0" /></clipPath><clipPath
       clipPathUnits="userSpaceOnUse"
       id="clipPath862"><path
         d="M 0,612 H 792 V 0 H 0 Z"
         id="path860"
         inkscape:connector-curvature="0" /></clipPath><clipPath
       clipPathUnits="userSpaceOnUse"
       id="clipPath874"><path
         d="M 0,612 H 792 V 0 H 0 Z"
         id="path872"
         inkscape:connector-curvature="0" /></clipPath><clipPath
       clipPathUnits="userSpaceOnUse"
       id="clipPath886"><path
         d="M 0,612 H 792 V 0 H 0 Z"
         id="path884"
         inkscape:connector-curvature="0" /></clipPath><clipPath
       clipPathUnits="userSpaceOnUse"
       id="clipPath902"><path
         d="M 0,612 H 792 V 0 H 0 Z"
         id="path900"
         inkscape:connector-curvature="0" /></clipPath><clipPath
       clipPathUnits="userSpaceOnUse"
       id="clipPath914"><path
         d="M 0,612 H 792 V 0 H 0 Z"
         id="path912"
         inkscape:connector-curvature="0" /></clipPath><clipPath
       clipPathUnits="userSpaceOnUse"
       id="clipPath926"><path
         d="M 0,612 H 792 V 0 H 0 Z"
         id="path924"
         inkscape:connector-curvature="0" /></clipPath><clipPath
       clipPathUnits="userSpaceOnUse"
       id="clipPath938"><path
         d="M 0,612 H 792 V 0 H 0 Z"
         id="path936"
         inkscape:connector-curvature="0" /></clipPath><clipPath
       clipPathUnits="userSpaceOnUse"
       id="clipPath950"><path
         d="M 0,612 H 792 V 0 H 0 Z"
         id="path948"
         inkscape:connector-curvature="0" /></clipPath><clipPath
       clipPathUnits="userSpaceOnUse"
       id="clipPath962"><path
         d="M 0,612 H 792 V 0 H 0 Z"
         id="path960"
         inkscape:connector-curvature="0" /></clipPath><clipPath
       clipPathUnits="userSpaceOnUse"
       id="clipPath974"><path
         d="M 0,612 H 792 V 0 H 0 Z"
         id="path972"
         inkscape:connector-curvature="0" /></clipPath><clipPath
       clipPathUnits="userSpaceOnUse"
       id="clipPath998"><path
         d="M 0,612 H 792 V 0 H 0 Z"
         id="path996"
         inkscape:connector-curvature="0" /></clipPath><clipPath
       clipPathUnits="userSpaceOnUse"
       id="clipPath1020"><path
         d="M 0,0 H 792 V 612 H 0 Z"
         id="path1018"
         inkscape:connector-curvature="0" /></clipPath><clipPath
       clipPathUnits="userSpaceOnUse"
       id="clipPath1134"><path
         d="M 0,612 H 792 V 0 H 0 Z"
         id="path1132"
         inkscape:connector-curvature="0" /></clipPath><clipPath
       clipPathUnits="userSpaceOnUse"
       id="clipPath1146"><path
         d="M 0,0 H 792 V 612 H 0 Z"
         id="path1144"
         inkscape:connector-curvature="0" /></clipPath><clipPath
       clipPathUnits="userSpaceOnUse"
       id="clipPath1192"><path
         d="M 0,612 H 792 V 0 H 0 Z"
         id="path1190"
         inkscape:connector-curvature="0" /></clipPath><clipPath
       clipPathUnits="userSpaceOnUse"
       id="clipPath1204"><path
         d="M 0,0 H 792 V 612 H 0 Z"
         id="path1202"
         inkscape:connector-curvature="0" /></clipPath><clipPath
       clipPathUnits="userSpaceOnUse"
       id="clipPath1238"><path
         d="M 0,612 H 792 V 0 H 0 Z"
         id="path1236"
         inkscape:connector-curvature="0" /></clipPath><clipPath
       clipPathUnits="userSpaceOnUse"
       id="clipPath1250"><path
         d="M 0,0 H 792 V 612 H 0 Z"
         id="path1248"
         inkscape:connector-curvature="0" /></clipPath><clipPath
       clipPathUnits="userSpaceOnUse"
       id="clipPath1284"><path
         d="M 0,612 H 792 V 0 H 0 Z"
         id="path1282"
         inkscape:connector-curvature="0" /></clipPath><clipPath
       clipPathUnits="userSpaceOnUse"
       id="clipPath1296"><path
         d="M 0,0 H 792 V 612 H 0 Z"
         id="path1294"
         inkscape:connector-curvature="0" /></clipPath><clipPath
       clipPathUnits="userSpaceOnUse"
       id="clipPath1324"><path
         d="M 0,612 H 792 V 0 H 0 Z"
         id="path1322"
         inkscape:connector-curvature="0" /></clipPath><clipPath
       clipPathUnits="userSpaceOnUse"
       id="clipPath1336"><path
         d="M 0,0 H 792 V 612 H 0 Z"
         id="path1334"
         inkscape:connector-curvature="0" /></clipPath><clipPath
       clipPathUnits="userSpaceOnUse"
       id="clipPath1354"><path
         d="M 0,14 H 792 V 612 H 0 Z"
         id="path1352"
         inkscape:connector-curvature="0" /></clipPath><clipPath
       clipPathUnits="userSpaceOnUse"
       id="clipPath1376"><path
         d="M 0,0 H 792 V 612 H 0 Z"
         id="path1374"
         inkscape:connector-curvature="0" /></clipPath><clipPath
       clipPathUnits="userSpaceOnUse"
       id="clipPath1412"><path
         d="M 0,612 H 792 V 0 H 0 Z"
         id="path1410"
         inkscape:connector-curvature="0" /></clipPath><clipPath
       clipPathUnits="userSpaceOnUse"
       id="clipPath1424"><path
         d="M 0,612 H 792 V 0 H 0 Z"
         id="path1422"
         inkscape:connector-curvature="0" /></clipPath><clipPath
       clipPathUnits="userSpaceOnUse"
       id="clipPath1440"><path
         d="M 0,612 H 792 V 0 H 0 Z"
         id="path1438"
         inkscape:connector-curvature="0" /></clipPath><clipPath
       clipPathUnits="userSpaceOnUse"
       id="clipPath1466"><path
         d="M 0,612 H 792 V 0 H 0 Z"
         id="path1464"
         inkscape:connector-curvature="0" /></clipPath><clipPath
       clipPathUnits="userSpaceOnUse"
       id="clipPath1478"><path
         d="M 0,0 H 792 V 612 H 0 Z"
         id="path1476"
         inkscape:connector-curvature="0" /></clipPath><clipPath
       clipPathUnits="userSpaceOnUse"
       id="clipPath1526"><path
         d="m 540.349,445.024 h 152.133 v 33.94 H 540.349 Z"
         id="path1524"
         inkscape:connector-curvature="0" /></clipPath></defs><sodipodi:namedview
     pagecolor="#ffffff"
     bordercolor="#666666"
     borderopacity="1"
     objecttolerance="10"
     gridtolerance="10"
     guidetolerance="10"
     inkscape:pageopacity="0"
     inkscape:pageshadow="2"
     inkscape:window-width="1920"
     inkscape:window-height="1001"
     id="namedview4"
     showgrid="false"
     inkscape:zoom="0.81802549"
     inkscape:cx="113.53905"
     inkscape:cy="16.48383"
     inkscape:window-x="-9"
     inkscape:window-y="-9"
     inkscape:window-maximized="1"
     inkscape:current-layer="g1869" /><g
     id="g10"
     inkscape:groupmode="layer"
     inkscape:label="BrandQuickGuide_2019"
     transform="matrix(1.3333333,0,0,-1.3333333,-72.173327,786.66947)"><g
       id="g1869"
       transform="matrix(4.5645427,0,0,4.5645427,-192.9487,-1504.2192)"><path
         inkscape:connector-curvature="0"
         id="path46"
         style="fill:#cc0000;fill-opacity:1;fill-rule:nonzero;stroke:none"
         d="m 54.13,421.995 h 82.155 v 36.807 H 54.13 Z" /><path
         inkscape:connector-curvature="0"
         id="path48"
         style="fill:#ffffff;fill-opacity:1;fill-rule:nonzero;stroke:none"
         d="M 134.374,423.91 H 56.04 v 32.983 h 78.334 z m -78.893,33.543 v -34.108 h 79.455 v 34.108" /><g
         transform="translate(68.83911,444.6099)"
         id="g58"><path
           inkscape:connector-curvature="0"
           id="path60"
           style="fill:#ffffff;fill-opacity:1;fill-rule:nonzero;stroke:none"
           d="m 0,0 c -0.004,-1.217 -0.582,-2.481 -2.643,-2.484 -1.316,0.007 -1.753,0.402 -1.761,1.587 v 3.32 h 1.667 C -0.912,2.422 -0.001,1.195 0,0 M -2.721,2.787 H -4.404 V 6.61 c 0.396,0.016 1.017,0.045 1.352,0.045 C -1.128,6.652 -0.492,5.667 -0.488,4.58 -0.492,3.369 -1.217,2.792 -2.721,2.787 m 1.96,-0.1 C 0.272,2.901 0.993,3.731 0.994,4.627 0.995,5.392 0.671,5.941 0.02,6.401 -0.559,6.818 -1.774,7.019 -3.162,7.02 -3.462,7.02 -4.657,7.004 -5.524,6.973 -5.98,6.957 -7.066,6.894 -7.506,6.878 H -7.538 V 6.514 h 0.584 c 1.088,-0.009 1.169,-0.438 1.179,-1.336 v -6.531 c -0.01,-0.985 -0.222,-1.248 -1.51,-1.258 h -0.394 v -0.364 h 5.792 c 2.551,0.003 3.428,1.766 3.432,3.023 0,1.226 -0.856,2.19 -2.306,2.639" /></g><g
         transform="translate(77.83711,451.2651)"
         id="g62"><path
           inkscape:connector-curvature="0"
           id="path64"
           style="fill:#ffffff;fill-opacity:1;fill-rule:nonzero;stroke:none"
           d="M 0,0 C 2.578,-0.001 4.419,-2.042 4.421,-4.955 4.419,-7.18 3.202,-9.419 0.661,-9.424 c -2.515,10e-4 -4.499,2.06 -4.5,4.988 C -3.838,-2.557 -2.745,-0.004 0,0 m 0.409,0.459 c -3.366,-0.006 -5.787,-2.234 -5.793,-5.383 0.001,-2.964 2.617,-4.953 5.714,-4.958 3.069,0.006 5.629,2.248 5.635,5.446 -10e-4,2.854 -2.568,4.89 -5.556,4.895" /></g><g
         transform="translate(86.52311,441.6348)"
         id="g66"><path
           inkscape:connector-curvature="0"
           id="path68"
           style="fill:#ffffff;fill-opacity:1;fill-rule:nonzero;stroke:none"
           d="M 0,0 H 0.018 L 0.027,0.014 C 0.085,0.102 0.186,0.173 0.315,0.173 0.517,0.175 1.63,-0.252 2.502,-0.252 4.355,-0.249 5.744,0.907 5.744,2.471 5.73,5.403 0.671,6.009 0.694,8.2 c 0,0.861 0.702,1.445 1.73,1.447 1.07,0 2.066,-0.715 2.503,-1.837 L 4.935,7.79 H 5.261 L 4.986,9.853 H 4.688 L 4.679,9.841 C 4.584,9.718 4.542,9.698 4.422,9.695 3.891,9.693 3.61,10.089 2.282,10.089 0.664,10.087 -0.551,9.103 -0.552,7.775 -0.536,4.984 4.521,4.286 4.499,2.062 4.498,0.842 3.404,0.24 2.36,0.238 1.147,0.239 0.06,1.044 -0.268,2.432 L -0.274,2.457 H -0.636 L -0.296,0" /></g><g
         transform="translate(94.23021,449.1108)"
         id="g70"><path
           inkscape:connector-curvature="0"
           id="path72"
           style="fill:#ffffff;fill-opacity:1;fill-rule:nonzero;stroke:none"
           d="M 0,0 0.005,0.027 C 0.244,1.413 0.512,1.744 1.121,1.746 H 3.826 V -5.996 C 3.818,-6.837 3.57,-7.103 2.615,-7.112 H 2.001 v -0.364 h 5.022 v 0.364 H 6.409 C 5.454,-7.103 5.206,-6.837 5.198,-5.996 V 1.746 H 7.903 C 8.512,1.744 8.78,1.413 9.02,0.027 L 9.024,0 H 9.371 L 9.113,2.613 H 8.756 L 8.752,2.587 C 8.73,2.429 8.517,2.377 8.297,2.378 H 0.728 C 0.621,2.378 0.513,2.393 0.424,2.423 0.337,2.453 0.286,2.505 0.272,2.587 L 0.267,2.613 H -0.089 L -0.347,0 h 0.319" /></g><g
         transform="translate(110.75311,441.8418)"
         id="g74"><path
           inkscape:connector-curvature="0"
           id="path76"
           style="fill:#ffffff;fill-opacity:1;fill-rule:nonzero;stroke:none"
           d="m 0,0 c -2.515,0 -4.498,2.059 -4.499,4.987 10e-4,1.879 1.094,4.432 3.838,4.437 C 1.917,9.423 3.758,7.382 3.76,4.468 3.758,2.243 2.542,0.004 0,0 M -0.251,9.883 C -3.619,9.877 -6.038,7.649 -6.044,4.499 -6.043,1.535 -3.428,-0.453 -0.33,-0.459 2.738,-0.453 5.299,1.79 5.305,4.987 5.304,7.841 2.737,9.877 -0.251,9.883" /></g><g
         transform="translate(121.32831,441.9658)"
         id="g78"><path
           inkscape:connector-curvature="0"
           id="path80"
           style="fill:#ffffff;fill-opacity:1;fill-rule:nonzero;stroke:none"
           d="m 0,0 v 0.033 h -0.032 c -1.337,0.011 -1.547,0.209 -1.557,1.336 v 6.67 L 6.516,-0.442 H 6.972 V 8.372 C 6.978,8.969 7.188,9.149 8.371,9.157 H 8.403 V 9.522 H 4.656 V 9.159 L 4.688,9.158 C 5.95,9.116 6.189,8.975 6.198,8.025 V 1.844 L -1.168,9.522 H -3.684 V 9.159 L -3.653,9.158 C -3.114,9.142 -2.716,9.021 -2.363,8.78 V 1.054 C -2.369,0.343 -2.65,0.04 -3.62,0.033 H -3.715 V -0.331 H 0" /></g><g
         transform="translate(66.68921,436.064)"
         id="g82"><path
           inkscape:connector-curvature="0"
           id="path84"
           style="fill:#ffffff;fill-opacity:1;fill-rule:nonzero;stroke:none"
           d="M 0,0 V -0.261 L 0.031,-0.264 C 0.889,-0.315 1.008,-0.449 1.019,-1.448 V -3.871 C 1.016,-5.62 -0.151,-6.09 -1.32,-6.094 c -1.536,0.003 -2.334,0.823 -2.337,2.213 v 2.89 c 0.007,0.592 0.22,0.719 0.788,0.727 h 0.126 V 0 h -2.738 v -0.263 l 0.033,-0.001 c 0.707,-0.02 0.852,-0.09 0.862,-0.747 v -3.036 c 0.003,-1.503 1.039,-2.65 3.038,-2.654 2.272,0.004 3.108,1.402 3.11,2.706 v 2.807 C 1.57,-0.53 1.79,-0.28 2.477,-0.264 l 0.032,0.001 V 0 H 2.476" /></g><g
         transform="translate(75.73211,435.833)"
         id="g86"><path
           inkscape:connector-curvature="0"
           id="path88"
           style="fill:#ffffff;fill-opacity:1;fill-rule:nonzero;stroke:none"
           d="M 0,0 V -0.031 L 0.032,-0.032 C 0.866,-0.064 1.01,-0.146 1.019,-0.769 V -4.826 L -3.832,0.23 h -1.68 v -0.261 l 0.032,-0.001 c 0.352,-0.01 0.611,-0.089 0.842,-0.245 V -5.376 C -4.644,-5.843 -4.819,-6.033 -5.459,-6.04 h -0.074 v -0.263 h 2.478 v 0.263 h -0.032 c -0.884,0.011 -1.008,0.129 -1.018,0.872 v 4.38 l 5.34,-5.588 h 0.317 v 5.835 c 0.007,0.389 0.131,0.5 0.914,0.508 H 2.498 V 0.231 H 0" /></g><g
         transform="translate(79.64811,435.833)"
         id="g90"><path
           inkscape:connector-curvature="0"
           id="path92"
           style="fill:#ffffff;fill-opacity:1;fill-rule:nonzero;stroke:none"
           d="M 0,0 V -0.03 L 0.031,-0.032 C 0.61,-0.071 0.772,-0.196 0.78,-0.749 v -4.43 C 0.77,-5.873 0.669,-6 0.031,-6.04 L 0,-6.042 V -6.304 H 2.592 V -6.04 H 2.559 c -0.711,0.009 -0.841,0.181 -0.85,0.788 v 4.41 c 0.009,0.689 0.199,0.8 0.85,0.81 H 2.592 V 0.231 H 0" /></g><g
         transform="translate(87.79901,435.833)"
         id="g94"><path
           inkscape:connector-curvature="0"
           id="path96"
           style="fill:#ffffff;fill-opacity:1;fill-rule:nonzero;stroke:none"
           d="m 0,0 v -0.033 h 0.032 c 0.71,-0.003 0.934,-0.121 0.935,-0.404 0,-0.136 -0.061,-0.343 -0.175,-0.632 l -1.613,-4.218 -1.841,4.581 c -0.042,0.102 -0.063,0.189 -0.063,0.262 -0.005,0.256 0.268,0.394 1.021,0.412 h 0.032 v 0.263 h -2.925 v -0.263 h 0.033 c 0.628,-0.006 0.722,-0.136 0.989,-0.791 l 2.264,-5.646 h 0.565 l 2.15,5.563 c 0.252,0.64 0.513,0.871 1.041,0.874 H 2.478 V 0.231 H 0" /></g><g
         transform="translate(96.27711,431.144)"
         id="g98"><path
           inkscape:connector-curvature="0"
           id="path100"
           style="fill:#ffffff;fill-opacity:1;fill-rule:nonzero;stroke:none"
           d="m 0,0 -0.007,-0.024 c -0.265,-0.893 -0.459,-1.146 -1.174,-1.15 l -1.602,-0.001 c -0.381,0.009 -0.521,0.07 -0.529,0.54 v 2.182 h 1.725 c 0.42,-0.008 0.582,-0.058 0.674,-0.793 L -0.91,0.726 h 0.26 v 2.04 H -0.91 L -0.913,2.737 C -0.97,2.136 -1.124,1.992 -1.483,1.987 h -1.829 v 2.492 h 2.161 c 0.358,-0.003 0.598,-0.161 0.738,-1.043 l 0.004,-0.028 h 0.25 L -0.246,4.92 H -5.301 V 4.656 h 0.262 c 0.687,-0.008 0.79,-0.22 0.798,-0.8 V -0.531 C -4.25,-1.15 -4.358,-1.342 -5.186,-1.352 H -5.509 V -1.615 H 0.075 L 0.248,0 H 0.025" /></g><g
         transform="translate(106.50311,434.959)"
         id="g102"><path
           inkscape:connector-curvature="0"
           id="path104"
           style="fill:#ffffff;fill-opacity:1;fill-rule:nonzero;stroke:none"
           d="m 0,0 c 0.001,0.562 0.456,0.944 1.131,0.945 0.702,0 1.357,-0.468 1.645,-1.206 L 2.783,-0.282 H 3.02 L 2.834,1.105 H 2.623 L 2.613,1.091 C 2.55,1.011 2.529,1.003 2.452,1 2.108,0.997 1.917,1.26 1.038,1.26 -0.035,1.259 -0.845,0.605 -0.846,-0.281 -0.83,-2.137 2.514,-2.601 2.492,-4.056 2.491,-4.853 1.777,-5.248 1.09,-5.249 c -0.797,0 -1.51,0.529 -1.726,1.44 l -0.006,0.025 h -0.26 l 0.227,-1.646 h 0.222 l 0.01,0.015 c 0.037,0.055 0.1,0.1 0.181,0.1 0.127,0.003 0.867,-0.28 1.445,-0.281 1.23,0.003 2.154,0.77 2.154,1.811 C 3.322,-1.837 -0.023,-1.432 0,0" /></g><g
         transform="translate(111.65941,435.833)"
         id="g106"><path
           inkscape:connector-curvature="0"
           id="path108"
           style="fill:#ffffff;fill-opacity:1;fill-rule:nonzero;stroke:none"
           d="M 0,0 V -0.031 L 0.031,-0.032 C 0.609,-0.071 0.772,-0.197 0.78,-0.749 v -4.43 C 0.77,-5.873 0.67,-6 0.031,-6.04 L 0,-6.042 V -6.304 H 2.592 V -6.04 H 2.56 c -0.712,0.009 -0.843,0.181 -0.852,0.788 v 4.41 c 0.009,0.689 0.199,0.8 0.852,0.81 H 2.592 V 0.231 H 0" /></g><g
         transform="translate(121.60811,436.2187)"
         id="g110"><path
           inkscape:connector-curvature="0"
           id="path112"
           style="fill:#ffffff;fill-opacity:1;fill-rule:nonzero;stroke:none"
           d="m 0,0 h -0.028 l -0.005,-0.027 c -0.01,-0.094 -0.144,-0.129 -0.289,-0.128 h -5.003 c -0.069,0 -0.14,0.009 -0.197,0.029 -0.055,0.018 -0.084,0.05 -0.093,0.099 L -5.619,0 h -0.255 l -0.173,-1.749 h 0.251 l 0.005,0.026 c 0.16,0.918 0.331,1.126 0.727,1.127 h 1.776 V -5.7 c -0.008,-0.553 -0.16,-0.718 -0.789,-0.726 L -4.494,-6.427 V -6.69 h 3.342 v 0.263 H -1.57 c -0.629,0.009 -0.781,0.174 -0.789,0.727 v 5.105 l 1.777,-0.001 c 0.395,-0.001 0.565,-0.209 0.726,-1.127 L 0.149,-1.749 H 0.4 L 0.227,0" /></g><g
         transform="translate(127.31811,436.064)"
         id="g114"><path
           inkscape:connector-curvature="0"
           id="path116"
           style="fill:#ffffff;fill-opacity:1;fill-rule:nonzero;stroke:none"
           d="M 0,0 V -0.263 H 0.033 C 0.487,-0.265 0.688,-0.345 0.688,-0.544 0.689,-0.643 0.64,-0.782 0.535,-0.962 l -1.441,-2.451 -1.635,2.525 c -0.112,0.17 -0.172,0.303 -0.171,0.392 0,0.148 0.172,0.233 0.695,0.233 h 0.033 v 0.264 h -2.831 v -0.263 l 0.032,-0.001 c 0.67,-0.024 0.884,-0.153 1.398,-0.952 l 1.845,-2.883 v -1.456 c -0.007,-0.502 -0.162,-0.709 -0.799,-0.717 h -0.23 v -0.263 h 2.925 v 0.263 H 0.189 c -0.628,0.008 -0.793,0.194 -0.8,0.738 l -0.001,1.559 1.723,2.906 c 0.29,0.484 0.575,0.752 1.274,0.805 l 0.03,0.002 V 0" /></g><g
         transform="translate(102.17741,434.1909)"
         id="g118"><path
           inkscape:connector-curvature="0"
           id="path120"
           style="fill:#ffffff;fill-opacity:1;fill-rule:nonzero;stroke:none"
           d="m 0,0 c -0.004,-1.226 -0.731,-1.692 -1.872,-1.696 -0.098,0 -0.181,-0.002 -0.261,-0.002 -0.111,0 -0.217,0.003 -0.349,0.018 v 3.338 c 0.17,0.017 0.298,0.017 0.485,0.017 C -0.413,1.67 -0.006,0.952 0,0 m 1.478,-3.735 c 0,-0.001 -1.321,1.681 -1.532,1.949 -0.067,0.079 -0.113,0.132 -0.152,0.165 0.768,0.288 1.245,0.876 1.245,1.683 C 1.036,1.14 0.153,1.936 -1.769,1.938 -2.442,1.938 -2.651,1.927 -3.075,1.907 -3.5,1.886 -4.132,1.845 -4.378,1.845 H -4.411 V 1.583 H -4.15 C -3.557,1.574 -3.415,1.424 -3.406,0.787 L -3.407,-3.572 C -3.415,-4.259 -3.597,-4.39 -4.202,-4.399 H -4.411 V -4.66 h 2.996 v 0.261 h -0.272 c -0.575,0.009 -0.788,0.134 -0.795,0.743 l 0.005,1.717 c 0.151,-0.01 0.289,-0.02 0.502,-0.019 0.281,0 0.557,0.023 0.778,0.062 l 0.004,0.016 v -0.015 c 0.096,0.017 0.47,-0.52 0.858,-1.01 l 0.609,-0.751 c 0.824,-0.937 1.073,-1.118 2.48,-1.114 0.013,0 0.026,-0.001 0.04,-0.001 h 0.032 v 0.247 l -0.027,0.005 c -0.634,0.108 -0.86,0.234 -1.321,0.784" /></g></g></g></svg>